<?xml version="1.0" encoding="utf-8"?>
<!-- Generator: Adobe Illustrator 24.1.0, SVG Export Plug-In . SVG Version: 6.00 Build 0)  -->
<svg version="1.1" id="Layer_1" xmlns="http://www.w3.org/2000/svg" xmlns:xlink="http://www.w3.org/1999/xlink" x="0px" y="0px"
	 viewBox="0 0 166 55" style="enable-background:new 0 0 166 55;" xml:space="preserve">
<style type="text/css">
	.st0{enable-background:new    ;}
	.st1{fill:#000000;}
	.st2{fill:#979797;}
</style>
<g>
	<g>
		<g>
			<g class="st0">
				<path class="st1" d="M1.9,6.5h9v0.4H7.8v13.5c0,1.1,0.1,2.1,0.3,2.8c0.2,0.7,0.5,1.4,0.9,1.9s0.9,0.8,1.5,1s1.2,0.3,2,0.3
					c1,0,2-0.2,2.8-0.5s1.5-0.9,2.1-1.6c0.2-0.2,0.4-0.5,0.5-0.7s0.3-0.5,0.4-0.9c0.1-0.3,0.2-0.7,0.2-1.2c0.1-0.5,0.1-1,0.1-1.7
					v-13h-3.1V6.5H22v0.4h-3.1v13.6c0,0.8-0.1,1.5-0.3,2.1c-0.2,0.6-0.5,1.3-1,2s-1.2,1.2-2.1,1.6s-2.1,0.6-3.6,0.6
					c-2.2,0-4-0.6-5.1-1.7c-1.2-1-1.8-2.7-1.8-5V6.9H1.9V6.5z M8.5,2.7c0-0.4,0.1-0.7,0.4-0.9c0.3-0.3,0.6-0.4,0.9-0.4
					s0.7,0.1,0.9,0.4s0.4,0.6,0.4,0.9S11,3.4,10.7,3.6S10.2,4,9.8,4S9.2,3.9,8.9,3.6C8.7,3.4,8.5,3.1,8.5,2.7z M13.7,2.7
					c0-0.4,0.1-0.7,0.4-0.9c0.3-0.3,0.6-0.4,0.9-0.4s0.7,0.1,0.9,0.4s0.4,0.6,0.4,0.9s-0.1,0.7-0.4,0.9S15.4,4,15,4
					s-0.7-0.1-0.9-0.4C13.9,3.4,13.7,3.1,13.7,2.7z"/>
				<path class="st1" d="M23.2,26.1h3.1V6.9h-3.1V6.5h6l9.5,15.3h0.1V6.9h-3.1V6.5h6.6v0.4h-3.1v19.9h-0.6L26.8,8.1h-0.1v18h3.1v0.4
					h-6.6C23.2,26.5,23.2,26.1,23.2,26.1z"/>
				<path class="st1" d="M42.5,6.5h8.7v0.4H48l6.2,16.2l6.1-16.2h-3.1V6.5h6v0.4h-2.5l-7.5,20h-0.7L45,6.9h-2.5V6.5z"/>
				<path class="st1" d="M63.9,26.1H67V6.9h-3.1V6.5h16v4.8h-0.3c-0.2-0.7-0.5-1.4-0.8-1.9c-0.3-0.6-0.6-1-1-1.4
					c-0.4-0.4-0.9-0.7-1.4-0.9c-0.5-0.2-1.2-0.3-2-0.3h-4.6v8.7h1.8c0.6,0,1.1-0.1,1.6-0.2c0.4-0.1,0.8-0.3,1.1-0.6
					c0.3-0.3,0.6-0.7,0.8-1.3c0.2-0.5,0.4-1.2,0.6-2.1H76V20h-0.3c-0.1-0.5-0.3-1.1-0.4-1.6s-0.3-1-0.6-1.3s-0.6-0.7-1-0.9
					c-0.4-0.2-1-0.3-1.6-0.3h-2.3V26h5.3c1,0,1.9-0.2,2.6-0.7c0.7-0.4,1.2-1,1.7-1.6c0.4-0.6,0.7-1.2,1-1.9c0.2-0.7,0.3-1.2,0.4-1.6
					h0.3v6.1H63.9V26.1z"/>
				<path class="st1" d="M83.6,26.1h3.1V6.9h-3.1V6.5h5.3c0.2,0,0.4,0,0.7,0c0.2,0,0.4,0,0.7,0c0.2,0,0.4,0,0.7,0s0.4,0,0.7,0
					c1.1,0,2.1,0.1,2.9,0.2s1.6,0.5,2.4,1c0.7,0.5,1.1,1.1,1.4,1.7c0.3,0.6,0.4,1.2,0.4,1.8c0,0.3-0.1,0.6-0.2,1.1
					c-0.1,0.4-0.3,0.9-0.7,1.3c-0.3,0.5-0.8,0.9-1.5,1.3c-0.7,0.4-1.5,0.6-2.6,0.8v0.1c0.3,0,0.7,0.1,1.2,0.2s1,0.3,1.6,0.5
					s1,0.6,1.5,1c0.4,0.4,0.8,0.9,1,1.6c0.1,0.4,0.2,0.8,0.2,1.3s0.1,1,0.1,1.5s0.1,1,0.1,1.5s0.1,0.9,0.2,1.2
					c0.1,0.5,0.3,0.9,0.5,1.3s0.6,0.6,1.2,0.6c0.2,0,0.5,0,0.8-0.1s0.5-0.2,0.7-0.4l0.3,0.3c-0.1,0.1-0.2,0.2-0.3,0.2
					c-0.1,0.1-0.3,0.2-0.5,0.2c-0.2,0.1-0.4,0.1-0.7,0.2s-0.6,0.1-1,0.1c-0.7,0-1.4-0.1-1.9-0.3c-0.5-0.2-0.9-0.5-1.2-0.8
					c-0.3-0.4-0.5-0.8-0.7-1.3s-0.2-1.2-0.3-1.9l-0.2-2.5c-0.1-0.9-0.3-1.7-0.6-2.2c-0.3-0.5-0.6-0.9-1-1.1s-0.8-0.4-1.2-0.4
					c-0.4,0-0.8-0.1-1.1-0.1h-2.8v10.1h3.1v0.4h-9v-0.8H83.6z M89.5,15.6h2.6c0.5,0,1-0.1,1.4-0.2c0.4-0.1,0.8-0.4,1.1-0.7
					c0.3-0.3,0.5-0.8,0.7-1.3c0.2-0.6,0.3-1.3,0.3-2.1c0-1-0.1-1.8-0.4-2.3c-0.3-0.6-0.6-1-1-1.3s-0.8-0.5-1.3-0.6S91.9,7,91.4,7
					c-0.3,0-0.7,0-1,0s-0.6,0-0.9,0.1C89.5,7.1,89.5,15.6,89.5,15.6z"/>
			</g>
		</g>
	</g>
</g>
<g>
	<g>
		<g>
			<g class="st0">
				<path class="st1" d="M64.2,52.1h3.1V32.9h-3.1v-0.4h9v0.4h-3.1v19.2h5c1.6,0,2.9-0.5,3.9-1.5c0.9-1,1.6-2.4,2-4.2h0.3v6.1H64.2
					V52.1z"/>
				<path class="st1" d="M83.4,52.1h3.1V32.9h-3.1v-0.4h16v4.8h-0.3c-0.2-0.7-0.5-1.4-0.8-1.9s-0.6-1-1-1.4s-0.9-0.7-1.4-0.9
					s-1.2-0.3-2-0.3h-4.6v8.7h1.8c0.6,0,1.1-0.1,1.6-0.2c0.4-0.1,0.8-0.3,1.1-0.6c0.3-0.3,0.6-0.7,0.8-1.3s0.4-1.2,0.6-2.1h0.3V46
					h-0.3c-0.1-0.5-0.3-1.1-0.4-1.6s-0.3-1-0.6-1.3s-0.6-0.7-1-0.9s-1-0.3-1.6-0.3h-2.3V52h5.3c1,0,1.9-0.2,2.6-0.7s1.2-1,1.7-1.6
					c0.4-0.6,0.7-1.2,1-1.9c0.2-0.7,0.3-1.2,0.4-1.6h0.3v6.1H83.4V52.1z"/>
				<path class="st1" d="M123.9,45.3h-2.2v6.4h-0.3c-0.2-0.2-0.4-0.3-0.5-0.4c-0.1-0.1-0.3-0.1-0.6-0.1c-0.3,0-0.7,0.1-1,0.3
					s-0.7,0.4-1.2,0.6c-0.5,0.2-1,0.4-1.6,0.6c-0.6,0.2-1.4,0.3-2.2,0.3c-1.3,0-2.5-0.2-3.5-0.7c-1-0.4-2-1.1-3-2.1
					c-0.9-0.9-1.7-2-2.3-3.3c-0.6-1.3-0.9-2.7-0.9-4.3c0-1.1,0.1-2,0.4-2.9c0.2-0.8,0.5-1.6,0.9-2.2s0.7-1.2,1.1-1.6
					c0.4-0.4,0.7-0.8,0.9-1c0.8-0.8,1.8-1.5,2.9-2s2.3-0.8,3.7-0.8c0.7,0,1.3,0.1,1.8,0.2c0.5,0.1,0.9,0.2,1.2,0.4
					c0.3,0.1,0.6,0.3,0.9,0.4c0.3,0.1,0.6,0.2,0.9,0.2c0.4,0,0.6-0.1,0.8-0.2c0.2-0.1,0.3-0.2,0.5-0.4h0.4v5.6h-0.3
					c-0.1-0.5-0.2-1.1-0.4-1.7s-0.6-1.3-1-1.9s-1.1-1.1-1.8-1.5c-0.8-0.4-1.7-0.6-2.9-0.6c-1.4,0-2.5,0.3-3.4,0.9s-1.5,1.4-2,2.3
					c-0.5,1-0.8,2-1,3.3c-0.2,1.2-0.2,2.4-0.2,3.7c0,0.8,0,1.7,0.1,2.5s0.2,1.6,0.4,2.4c0.2,0.7,0.4,1.4,0.7,2.1
					c0.3,0.6,0.7,1.2,1.2,1.6c0.6,0.5,1.1,0.9,1.7,1.1c0.6,0.2,1.4,0.3,2.3,0.3c0.6,0,1.2-0.1,1.7-0.3c0.6-0.2,1.1-0.5,1.6-0.9
					s0.8-0.9,1.1-1.5c0.3-0.6,0.4-1.3,0.4-2.1v-2.4h-3.6v-0.4h8.5v0.1H123.9z"/>
				<path class="st1" d="M124.5,52.1h2.5l7.6-20h0.7l7.6,20h2.5v0.4h-8.6v-0.4h3.1l-2.9-7.8h-6.5l-2.9,7.8h3.1v0.4h-6v-0.4H124.5z
					 M133.6,35.7l-3.1,8.1h6.2L133.6,35.7z"/>
				<path class="st1" d="M146.1,52.1h3.1V32.9h-3.1v-0.4h9v0.4H152v19.2h5c1.6,0,2.9-0.5,3.9-1.5c0.9-1,1.6-2.4,2-4.2h0.3v6.1h-17.1
					L146.1,52.1L146.1,52.1z"/>
			</g>
		</g>
	</g>
</g>
<g>
	<rect x="106.9" y="14.9" class="st2" width="56.3" height="2"/>
</g>
<g>
	<rect x="1.9" y="41.4" class="st2" width="56.9" height="2"/>
</g>
</svg>
