<?xml version="1.0" standalone="no"?>
<!DOCTYPE svg PUBLIC "-//W3C//DTD SVG 20010904//EN"
 "http://www.w3.org/TR/2001/REC-SVG-20010904/DTD/svg10.dtd">
<svg version="1.0" xmlns="http://www.w3.org/2000/svg"
 width="3544.000000pt" height="3544.000000pt" viewBox="0 0 3544.000000 3544.000000"
 preserveAspectRatio="xMidYMid meet">
<metadata>
Created by potrace 1.14, written by Peter Selinger 2001-2017
</metadata>
<g transform="translate(0.000000,3544.000000) scale(0.100000,-0.100000)"
fill="#000000" stroke="none">
<path d="M7805 28634 c-307 -55 -563 -192 -795 -424 -122 -121 -214 -245 -284
-380 -195 -375 -216 -835 -56 -1227 134 -326 423 -635 745 -793 218 -107 386
-144 645 -144 127 0 200 5 265 17 313 62 576 206 800 438 236 244 362 490 416
809 19 111 16 365 -5 485 -53 299 -196 566 -426 795 -235 235 -491 371 -804
425 -113 19 -390 19 -501 -1z"/>
<path d="M11875 28634 c-312 -58 -562 -191 -795 -424 -329 -329 -482 -742
-440 -1190 27 -287 124 -532 301 -759 239 -307 568 -513 923 -578 131 -24 399
-24 531 1 305 57 577 206 801 438 294 304 427 625 427 1033 0 375 -109 671
-357 964 -212 251 -499 428 -816 503 -115 27 -456 35 -575 12z"/>
<path d="M1040 23605 l0 -165 1090 0 1090 0 3 -5727 c3 -6208 -1 -5750 52
-6228 66 -591 191 -1192 325 -1550 244 -656 667 -1253 1206 -1700 594 -493
1471 -914 2374 -1140 830 -208 1767 -305 2951 -305 585 0 889 16 1324 71 874
111 1730 413 2389 846 265 174 450 328 686 569 362 371 585 735 835 1358 202
505 344 1086 395 1621 32 336 33 494 37 6333 l3 5852 1090 0 1090 0 0 165 0
165 -2340 0 -2340 0 0 -165 0 -165 1065 0 1066 0 -4 -5777 c-3 -4234 -7 -5834
-15 -5988 -48 -851 -200 -1517 -501 -2185 -202 -447 -425 -774 -751 -1100
-311 -311 -626 -532 -1050 -739 -734 -358 -1441 -508 -2520 -537 -860 -22
-1582 121 -2097 417 -364 208 -705 514 -965 866 -298 401 -544 982 -686 1618
-106 472 -154 914 -214 1950 -8 146 -12 1732 -15 5838 l-4 5637 1076 0 1075 0
0 165 0 165 -3860 0 -3860 0 0 -165z"/>
<path d="M19570 23605 l0 -165 1075 0 1075 0 0 -8000 0 -8000 -1075 0 -1075 0
0 -165 0 -165 7415 0 7415 0 0 2645 0 2645 -153 0 -152 0 -53 -213 c-243 -992
-561 -1748 -1037 -2467 -436 -659 -917 -1155 -1490 -1537 -589 -392 -1252
-623 -2065 -720 -132 -16 -334 -17 -2242 -20 l-2098 -4 0 8001 0 8000 1075 0
1075 0 0 165 0 165 -3845 0 -3845 0 0 -165z"/>
</g>
</svg>
